<mxfile host="app.diagrams.net" agent="Mozilla/5.0 (Macintosh; Intel Mac OS X 10_15_7) AppleWebKit/537.36 (KHTML, like Gecko) Chrome/131.0.0.0 Safari/537.36" version="26.0.7">
  <diagram name="Page-1" id="v5tkOi9IBtVEalExRmIQ">
    <mxGraphModel dx="954" dy="639" grid="1" gridSize="10" guides="1" tooltips="1" connect="1" arrows="1" fold="1" page="1" pageScale="1" pageWidth="827" pageHeight="1169" math="0" shadow="0">
      <root>
        <mxCell id="0" />
        <mxCell id="1" parent="0" />
        <mxCell id="7Ms4LqUAseg72F-IDFvy-1" value="Backup" style="rounded=1;whiteSpace=wrap;html=1;dashed=1;" vertex="1" parent="1">
          <mxGeometry x="580" y="150" width="120" height="60" as="geometry" />
        </mxCell>
        <mxCell id="7Ms4LqUAseg72F-IDFvy-2" value="Primary" style="rounded=1;whiteSpace=wrap;html=1;" vertex="1" parent="1">
          <mxGeometry x="400" y="150" width="120" height="60" as="geometry" />
        </mxCell>
        <mxCell id="7Ms4LqUAseg72F-IDFvy-20" value="" style="endArrow=classic;html=1;rounded=0;entryX=0;entryY=0.25;entryDx=0;entryDy=0;" edge="1" parent="1" target="7Ms4LqUAseg72F-IDFvy-2">
          <mxGeometry relative="1" as="geometry">
            <mxPoint x="320" y="140" as="sourcePoint" />
            <mxPoint x="460" y="330" as="targetPoint" />
          </mxGeometry>
        </mxCell>
        <mxCell id="7Ms4LqUAseg72F-IDFvy-21" value="1" style="edgeLabel;resizable=0;html=1;;align=center;verticalAlign=middle;" connectable="0" vertex="1" parent="7Ms4LqUAseg72F-IDFvy-20">
          <mxGeometry relative="1" as="geometry" />
        </mxCell>
        <mxCell id="7Ms4LqUAseg72F-IDFvy-24" value="" style="endArrow=classic;html=1;rounded=0;" edge="1" parent="1">
          <mxGeometry relative="1" as="geometry">
            <mxPoint x="520" y="160" as="sourcePoint" />
            <mxPoint x="580" y="160" as="targetPoint" />
          </mxGeometry>
        </mxCell>
        <mxCell id="7Ms4LqUAseg72F-IDFvy-25" value="2" style="edgeLabel;resizable=0;html=1;;align=center;verticalAlign=middle;" connectable="0" vertex="1" parent="7Ms4LqUAseg72F-IDFvy-24">
          <mxGeometry relative="1" as="geometry" />
        </mxCell>
        <mxCell id="7Ms4LqUAseg72F-IDFvy-26" value="3" style="text;html=1;align=center;verticalAlign=middle;resizable=0;points=[];autosize=1;strokeColor=none;fillColor=none;" vertex="1" parent="1">
          <mxGeometry x="700" y="165" width="30" height="30" as="geometry" />
        </mxCell>
        <mxCell id="7Ms4LqUAseg72F-IDFvy-27" value="" style="endArrow=classic;html=1;rounded=0;entryX=1;entryY=0.75;entryDx=0;entryDy=0;exitX=0;exitY=0.75;exitDx=0;exitDy=0;" edge="1" parent="1" source="7Ms4LqUAseg72F-IDFvy-1" target="7Ms4LqUAseg72F-IDFvy-2">
          <mxGeometry relative="1" as="geometry">
            <mxPoint x="530" y="240" as="sourcePoint" />
            <mxPoint x="630" y="240" as="targetPoint" />
          </mxGeometry>
        </mxCell>
        <mxCell id="7Ms4LqUAseg72F-IDFvy-28" value="4" style="edgeLabel;resizable=0;html=1;;align=center;verticalAlign=middle;" connectable="0" vertex="1" parent="7Ms4LqUAseg72F-IDFvy-27">
          <mxGeometry relative="1" as="geometry" />
        </mxCell>
        <mxCell id="7Ms4LqUAseg72F-IDFvy-29" value="5" style="text;html=1;align=center;verticalAlign=middle;resizable=0;points=[];autosize=1;strokeColor=none;fillColor=none;" vertex="1" parent="1">
          <mxGeometry x="445" y="210" width="30" height="30" as="geometry" />
        </mxCell>
        <mxCell id="7Ms4LqUAseg72F-IDFvy-30" value="" style="endArrow=classic;html=1;rounded=0;exitX=0;exitY=0.75;exitDx=0;exitDy=0;" edge="1" parent="1" source="7Ms4LqUAseg72F-IDFvy-2">
          <mxGeometry relative="1" as="geometry">
            <mxPoint x="310" y="210" as="sourcePoint" />
            <mxPoint x="320" y="220" as="targetPoint" />
          </mxGeometry>
        </mxCell>
        <mxCell id="7Ms4LqUAseg72F-IDFvy-31" value="6" style="edgeLabel;resizable=0;html=1;;align=center;verticalAlign=middle;" connectable="0" vertex="1" parent="7Ms4LqUAseg72F-IDFvy-30">
          <mxGeometry relative="1" as="geometry" />
        </mxCell>
        <mxCell id="7Ms4LqUAseg72F-IDFvy-33" value="&lt;div&gt;&lt;/div&gt;&lt;div&gt;&lt;/div&gt;&lt;div&gt;&lt;/div&gt;&lt;div&gt;&lt;/div&gt;&lt;div&gt;&lt;/div&gt;" style="text;html=1;align=center;verticalAlign=middle;resizable=0;points=[];autosize=1;strokeColor=none;fillColor=none;" vertex="1" parent="1">
          <mxGeometry x="340" y="248" width="20" height="10" as="geometry" />
        </mxCell>
        <mxCell id="7Ms4LqUAseg72F-IDFvy-34" value="&lt;div style=&quot;text-align: left;&quot;&gt;&lt;span style=&quot;background-color: transparent; color: light-dark(rgb(0, 0, 0), rgb(255, 255, 255));&quot;&gt;1) Client messages the primary&lt;/span&gt;&lt;/div&gt;&lt;div style=&quot;text-align: left;&quot;&gt;2) Primary replicates the message to backup&lt;/div&gt;&lt;div style=&quot;text-align: left;&quot;&gt;3) Backup executes on message&lt;/div&gt;&lt;div style=&quot;text-align: left;&quot;&gt;4) Backup acknowledges message sent from primary&lt;/div&gt;&lt;div style=&quot;text-align: left;&quot;&gt;5) Primary executes on message&lt;/div&gt;&lt;div style=&quot;text-align: left;&quot;&gt;6) Primary sends result to client&lt;/div&gt;" style="text;html=1;align=center;verticalAlign=middle;resizable=0;points=[];autosize=1;strokeColor=none;fillColor=none;" vertex="1" parent="1">
          <mxGeometry x="380" y="230" width="310" height="100" as="geometry" />
        </mxCell>
      </root>
    </mxGraphModel>
  </diagram>
</mxfile>
